<svg width="56" height="56" viewBox="0 0 56 56" fill="none" xmlns="http://www.w3.org/2000/svg">
<path d="M31.9878 21.25C30.7023 21.25 29.4119 21.7266 28.4329 22.675L27.5006 23.5755L26.5682 22.6849C24.6103 20.7881 21.4265 20.7881 19.4685 22.6849C17.5105 24.5817 17.5105 27.6559 19.4685 29.5527C21.9932 31.9985 24.5148 34.4496 27.0395 36.8954C27.1005 36.955 27.1731 37.0022 27.2531 37.0345C27.3331 37.0667 27.419 37.0833 27.5057 37.0833C27.5924 37.0833 27.6782 37.0667 27.7582 37.0345C27.8382 37.0022 27.9108 36.955 27.9718 36.8954L35.5326 29.5428C37.4879 27.6446 37.4904 24.5718 35.5326 22.675C34.5535 21.7266 33.2734 21.25 31.9878 21.25ZM31.9878 22.5068C32.9333 22.5068 33.88 22.8579 34.6105 23.5656C36.0714 24.981 36.0705 27.2349 34.6105 28.6522L27.5006 35.5397C25.1326 33.2458 22.7584 30.9559 20.3906 28.662C18.9295 27.2467 18.9295 24.991 20.3906 23.5755C21.8516 22.1602 24.175 22.1601 25.636 23.5755L27.0293 24.9214C27.0903 24.9809 27.1629 25.0282 27.2429 25.0604C27.3229 25.0927 27.4087 25.1093 27.4954 25.1093C27.5821 25.1093 27.668 25.0927 27.748 25.0604C27.828 25.0282 27.9006 24.9809 27.9616 24.9214L29.3651 23.5656C30.0957 22.8579 31.0424 22.5068 31.9878 22.5068Z" fill="white"/>
<circle cx="28" cy="28" r="27.5" stroke="white"/>
</svg>
