<svg width="393" height="61" viewBox="0 0 393 61" fill="none" xmlns="http://www.w3.org/2000/svg">
<path d="M220.968 0.987305L221.272 1.18903C224.595 3.39784 227.27 3.80202 231.341 3.80203C232.858 3.78765 234.361 3.52349 235.792 3.02008L236.178 2.88586L238.109 5.60172L237.91 5.86809C230.738 15.4354 236.331 25.7647 240.289 29.888L240.655 30.2696L240.282 30.644C239.763 31.164 238.864 32.1028 238.196 32.8063L237.97 33.0451L237.985 33.3739L237.988 33.4881C237.992 33.5717 237.995 33.6584 238.012 33.8089L238.018 33.8687C238.353 40.25 236.706 45.4917 233.122 49.4467C229.315 53.6494 223.309 56.1795 216.211 56.571L215.938 56.5866L215.735 56.7725C213.927 58.4241 212.093 59.796 212.073 59.811L211.754 60.0504L211.434 59.812C211.358 59.7549 209.546 58.4018 207.762 56.7725L207.56 56.5866L207.286 56.571C200.188 56.1795 194.182 53.6493 190.374 49.4466C186.79 45.4901 185.143 40.2485 185.48 33.8671L185.484 33.8068C185.501 33.6656 185.504 33.5877 185.508 33.4989L185.508 33.475L185.508 33.4724L185.512 33.3738L185.526 33.0446L185.3 32.8063C184.671 32.1422 183.747 31.1764 183.215 30.6439L182.842 30.2695L183.208 29.8879C187.167 25.7647 192.758 15.4354 185.587 5.86804L185.387 5.60167L187.319 2.88586L187.705 3.02003C189.136 3.52374 190.639 3.78795 192.155 3.80203C196.227 3.80203 198.902 3.39783 202.225 1.18903L202.529 0.987305L202.827 1.19499C205.408 3.12148 208.533 4.17056 211.749 4.18941C214.964 4.17044 218.089 3.12135 220.67 1.19499L220.968 0.987357" fill="#E8B909"/>
<path d="M189.912 24.6122C192.159 19.4394 192.996 12.7959 189.217 6.30236C190.187 6.47937 191.17 6.57058 192.156 6.57495C196.024 6.57495 199.068 6.22187 202.488 4.28125C205.263 6.02481 208.469 6.95363 211.743 6.96259C215.02 6.95551 218.231 6.02662 221.01 4.28125C224.43 6.22188 227.475 6.575 231.342 6.57501C232.332 6.57288 233.32 6.4762 234.291 6.28629C230.503 12.7954 231.339 19.4395 233.586 24.6123L189.912 24.6122Z" fill="white"/>
<path d="M233.586 24.6123C231.339 19.4395 230.503 12.7954 234.291 6.28629C233.319 6.4762 232.332 6.57288 231.342 6.57501C227.475 6.57501 224.43 6.22188 221.01 4.28125C218.231 6.02662 215.02 6.95551 211.743 6.96259C211.708 6.96259 211.675 6.96078 211.641 6.96051V24.6123L233.586 24.6123Z" fill="#FFDD00"/>
<path d="M228.775 49.6112C233.079 46.4528 235.621 41.4095 235.248 34.052C235.204 33.6335 235.173 33.6091 235.14 33.188H228.775L228.775 49.6112Z" fill="#0054A4"/>
<path d="M221.965 52.7775C224.41 52.1509 226.72 51.0773 228.777 49.6102V33.188H221.965V52.7775Z" fill="#A30046"/>
<path d="M194.719 49.6102C196.777 51.0772 199.086 52.1509 201.532 52.7775V33.188H194.719V49.6102Z" fill="#A30046"/>
<path d="M188.249 34.052C187.876 41.4095 190.417 46.4533 194.721 49.6117V33.188H188.356C188.323 33.6091 188.292 33.6335 188.249 34.052Z" fill="#0054A4"/>
<path d="M211.765 36.8195C212.964 36.8196 214.139 37.159 215.155 37.7988V33.188H208.342V37.8195C209.365 37.1664 210.552 36.8195 211.765 36.8195Z" fill="#A30046"/>
<path d="M211.765 49.7081C210.552 49.7083 209.365 49.3614 208.342 48.708V53.809C208.462 53.8152 208.581 53.8235 208.702 53.8297C210.965 53.8411 213.017 53.8536 214.794 53.8297C214.915 53.8235 215.034 53.8152 215.155 53.809V48.7288C214.139 49.3686 212.964 49.708 211.765 49.7081Z" fill="#A30046"/>
<path d="M215.154 33.188V37.7977C216.081 38.3749 216.845 39.1799 217.375 40.1364C217.905 41.093 218.184 42.1695 218.184 43.2642C218.184 44.3586 217.905 45.4348 217.375 46.3911C216.845 47.3474 216.081 48.1521 215.154 48.7291V53.8087C217.455 53.7078 219.739 53.3622 221.967 52.7776V33.188L215.154 33.188Z" fill="#0054A4"/>
<path d="M205.348 43.2642C205.348 42.1761 205.623 41.1058 206.147 40.1533C206.671 39.2009 207.427 38.3974 208.344 37.818V33.188H201.531V52.7775C203.76 53.3622 206.043 53.7079 208.344 53.8088V48.7088C207.427 48.1297 206.671 47.3265 206.147 46.3743C205.623 45.4221 205.348 44.352 205.348 43.2642Z" fill="#0054A4"/>
<path d="M191.445 12.1012C191.877 14.25 191.938 16.4574 191.624 18.6268H198.241V24.6118H204.741V18.6269H211.666V12.1012H204.741V5.46357C203.965 5.11766 203.213 4.72259 202.487 4.28076C201.158 5.04506 199.729 5.61919 198.241 5.98646V12.1012H191.445Z" fill="#E31937"/>
<path d="M225.656 24.6121V6.07816C224.861 5.90503 224.08 5.67079 223.32 5.37744V24.6121H225.656Z" fill="#E31937"/>
<path d="M216.312 24.6119V6.34326C215.546 6.556 214.765 6.71384 213.977 6.81555V24.6119H216.312Z" fill="#E31937"/>
<path d="M230.326 24.6122V6.56408C229.518 6.54872 228.743 6.51107 227.99 6.43945V24.6122H230.326Z" fill="#E31937"/>
<path d="M220.984 24.6122V4.2959C220.233 4.75232 219.453 5.15833 218.648 5.51121V24.6122H220.984Z" fill="#E31937"/>
<path d="M241.736 30.2658L240.845 29.3369C237.043 25.377 231.668 15.4703 238.526 6.31829L239.064 5.59917L236.471 1.95132L235.542 2.27373C234.192 2.74978 232.773 2.99967 231.342 3.01338C227.424 3.01338 224.857 2.62961 221.697 0.528843L220.958 0.0371612L220.23 0.544915C217.778 2.37893 214.807 3.37949 211.749 3.40096C208.691 3.37958 205.72 2.37903 203.267 0.544915L202.539 0.0371094L201.8 0.528843C198.641 2.62961 196.073 3.01333 192.156 3.01333C190.725 2.99968 189.306 2.74979 187.956 2.27368L187.026 1.95127L184.432 5.5986L184.971 6.31824C191.83 15.4702 186.454 25.3769 182.653 29.3368L181.762 30.2658L182.671 31.1765C183.159 31.6661 184.026 32.569 184.742 33.3261C184.74 33.3687 184.739 33.4061 184.738 33.4434C184.735 33.5219 184.733 33.5878 184.718 33.7145L184.711 33.7997C184.361 40.4001 186.075 45.8354 189.804 49.9524C193.758 54.3166 199.937 56.9262 207.244 57.3292C209.054 58.9845 210.892 60.3568 210.975 60.4185L211.756 61.0001L212.535 60.4165C212.617 60.3553 214.445 58.9834 216.253 57.3292C223.561 56.9262 229.74 54.3166 233.693 49.9524C237.423 45.8355 239.136 40.4012 238.787 33.7997L238.779 33.7145C238.768 33.6241 238.761 33.5331 238.76 33.4419C238.758 33.4061 238.757 33.3688 238.755 33.3262C239.472 32.5691 240.339 31.6657 240.827 31.1766L241.736 30.2658ZM237.407 32.8448C237.474 33.5078 237.435 33.4818 237.481 33.8697C238.261 48.5816 228.053 55.5285 215.717 56.0414C213.831 57.8099 211.754 59.3645 211.754 59.3645C211.754 59.3645 209.667 57.8099 207.781 56.0414C195.444 55.5284 185.236 48.5816 186.016 33.8697C186.062 33.4818 186.023 33.5077 186.09 32.8447C185.383 32.0939 184.212 30.8672 183.594 30.248C188.019 25.638 193.182 15.0912 186.016 5.52903L187.529 3.51383C189.016 4.03813 190.58 4.31253 192.156 4.32595C196.265 4.32595 199.072 3.91677 202.522 1.62284C205.195 3.60554 208.425 4.68753 211.749 4.71379C215.073 4.68749 218.303 3.60549 220.976 1.62284C224.426 3.91678 227.232 4.326 231.342 4.326C232.918 4.31251 234.481 4.0381 235.968 3.51388L237.481 5.52903C230.315 15.0911 235.478 25.6381 239.904 30.2481C239.285 30.8673 238.114 32.094 237.407 32.8448Z" fill="#231F20"/>
<path d="M188.162 33.1725C188.144 33.3973 188.127 33.5048 188.108 33.6252C188.092 33.7281 188.075 33.8397 188.054 34.0422C187.767 39.6997 189.175 44.2783 192.237 47.6518C195.75 51.52 201.441 53.7237 208.702 54.0259L208.979 54.0269C210.187 54.0342 211.333 54.0394 212.408 54.0394C213.25 54.0394 214.049 54.0363 214.803 54.0254C222.057 53.7237 227.748 51.5201 231.261 47.6518C234.324 44.2778 235.732 39.6998 235.443 34.0324C235.424 33.8398 235.406 33.7281 235.39 33.6253C235.371 33.5049 235.354 33.3973 235.337 33.1725L235.322 32.9908L188.176 32.9907L188.162 33.1725ZM188.445 34.0723C188.464 33.8895 188.48 33.7836 188.496 33.6855C188.509 33.5951 188.523 33.511 188.536 33.3854L234.962 33.3855C234.976 33.5122 234.989 33.5952 235.003 33.6866C235.018 33.7837 235.035 33.8896 235.053 34.0625C235.335 39.6105 233.962 44.093 230.972 47.386C227.53 51.1754 221.934 53.3354 214.792 53.6323C213.089 53.6557 211.133 53.6458 208.981 53.6344L208.711 53.6323C201.564 53.3353 195.968 51.1753 192.527 47.3865C189.537 44.094 188.164 39.6104 188.445 34.0723Z" fill="#231F20"/>
<path d="M189.733 24.533L189.613 24.8082L233.885 24.8083L233.766 24.5331C231.843 20.105 230.401 13.3615 234.461 6.38542L234.678 6.01158L234.254 6.0936C233.295 6.28046 232.32 6.37558 231.342 6.37765C227.391 6.37765 224.45 6.00638 221.107 4.10961L221.006 4.05273L220.908 4.11272C218.161 5.84152 214.985 6.76062 211.743 6.76523C208.505 6.75929 205.333 5.84023 202.59 4.11272L202.492 4.05273L202.392 4.10955C199.049 6.00631 196.107 6.3776 192.156 6.3776C191.182 6.37315 190.21 6.2832 189.251 6.10884L188.834 6.03439L189.048 6.40144C193.099 13.3641 191.656 20.105 189.733 24.533ZM211.863 7.15856C215.097 7.13296 218.262 6.21632 221.014 4.50864C224.39 6.39892 227.364 6.77124 231.342 6.77124C232.204 6.7694 233.064 6.69683 233.914 6.55423C230.11 13.3977 231.423 19.9805 233.289 24.4152H211.863L211.863 7.15856ZM189.592 6.56402C190.44 6.69903 191.297 6.7683 192.156 6.77119C196.134 6.77119 199.109 6.39892 202.485 4.50864C205.188 6.18702 208.293 7.1018 211.471 7.15649V24.4152H190.209C192.076 19.9799 193.391 13.3973 189.592 6.56397V6.56402Z" fill="#231F20"/>
<path d="M206.162 27.1698V25.8711H201.779V31.9681H203.097V29.453H204.888V28.1645H203.097V27.1698H206.162Z" fill="#231F20"/>
<path d="M211.293 27.0918C211.506 27.0792 211.718 27.1309 211.901 27.24C212.085 27.3492 212.232 27.5109 212.323 27.7044L212.351 27.7597L213.571 27.1953L213.542 27.1359C213.349 26.711 213.032 26.3542 212.634 26.1119C212.236 25.8696 211.775 25.753 211.31 25.777C209.718 25.777 208.605 27.0694 208.605 28.9191C208.605 30.8278 209.65 32.0608 211.267 32.0608C211.739 32.0876 212.207 31.9695 212.611 31.7225C213.014 31.4754 213.333 31.1109 213.525 30.6775L213.551 30.624L212.443 29.9646L212.41 30.0196C212.319 30.2382 212.165 30.4245 211.967 30.5542C211.77 30.6839 211.538 30.751 211.302 30.7471C210.498 30.7471 209.957 30.0118 209.957 28.9191C209.957 27.7924 210.469 27.0918 211.293 27.0918Z" fill="#231F20"/>
<path d="M221.47 27.5129C221.47 26.4853 220.741 25.8711 219.521 25.8711H216.73V31.9679H219.494C219.773 32.0065 220.056 31.9833 220.325 31.8997C220.593 31.8162 220.84 31.6745 221.048 31.4845C221.256 31.2945 221.42 31.061 221.528 30.8004C221.636 30.5398 221.686 30.2586 221.673 29.9766C221.682 29.7075 221.614 29.4416 221.478 29.2093C221.343 28.9771 221.144 28.788 220.907 28.6637C221.086 28.5315 221.23 28.3578 221.328 28.1575C221.426 27.9571 221.475 27.736 221.47 27.5129ZM218.023 27.1001H219.469C220.059 27.1001 220.134 27.3713 220.134 27.6065C220.134 27.9417 219.936 28.1043 219.529 28.1043H218.023V27.1001ZM219.538 30.7041H218.023V29.291H219.538C220.072 29.291 220.322 29.5148 220.322 29.9946C220.322 30.4585 220.05 30.7041 219.538 30.7041H219.538Z" fill="#231F20"/>
<path d="M211.724 49.8138C213.463 49.8116 215.13 49.1171 216.359 47.8826C217.588 46.6482 218.28 44.9746 218.282 43.2289C218.28 41.4833 217.588 39.8097 216.359 38.5753C215.13 37.3408 213.463 36.6463 211.724 36.644C209.986 36.6462 208.319 37.3407 207.089 38.5751C205.86 39.8095 205.168 41.4831 205.166 43.2289C205.168 44.9746 205.86 46.6483 207.089 47.8828C208.319 49.1173 209.986 49.8117 211.724 49.8138ZM211.724 49.4182C210.499 49.4195 209.301 49.0526 208.284 48.3646C209.712 48.3249 211.113 47.9713 212.39 47.3288C213.43 46.7062 214.535 45.9294 214.736 44.8915C214.976 44.7656 215.243 44.7015 215.513 44.7047C215.784 44.7079 216.049 44.7785 216.285 44.91C216.522 45.0415 216.722 45.23 216.868 45.4584C217.014 45.6868 217.102 45.948 217.123 46.2187C216.59 47.1879 215.808 47.996 214.859 48.5588C213.909 49.1215 212.827 49.4183 211.724 49.4182ZM208.684 44.6464C209.016 44.86 209.392 44.994 209.783 45.0379C210.281 45.0498 210.767 44.8844 211.155 44.571C211.544 44.2576 211.809 43.8164 211.904 43.3255C212.083 43.1667 212.297 43.0537 212.529 42.9961C212.76 42.9386 213.002 42.9382 213.234 42.9951C213.466 43.0519 213.681 43.1643 213.86 43.3226C214.039 43.4809 214.177 43.6803 214.263 43.904C214.803 45.2005 213.665 46.1366 212.201 47.0142C210.833 47.6841 209.329 48.0241 207.807 48.007C207.123 47.4411 206.568 46.7344 206.18 45.9347C206.229 45.9373 206.278 45.9388 206.329 45.9388C206.801 45.9545 207.268 45.8428 207.682 45.6155C208.097 45.3882 208.443 45.0536 208.684 44.6464ZM207.703 41.5206C207.758 40.3547 207.957 39.2002 208.298 38.0844C209.159 37.5037 210.153 37.1528 211.186 37.0646C211.025 37.2364 210.901 37.4398 210.822 37.6619C210.743 37.884 210.71 38.1202 210.726 38.3555C210.742 38.5909 210.806 38.8205 210.914 39.0299C211.022 39.2393 211.172 39.424 211.355 39.5725C211.171 39.7105 211.015 39.8822 210.895 40.0787C210.563 40.5973 210.444 41.225 210.563 41.8297C210.683 42.4343 211.032 42.9689 211.536 43.3208C211.443 43.7051 211.224 44.0471 210.915 44.2921C210.606 44.5371 210.224 44.671 209.83 44.6724C208.401 44.4886 207.726 43.1573 207.703 41.5207V41.5206ZM214.768 44.4803C214.755 44.2323 214.699 43.9887 214.601 43.7606C214.495 43.4894 214.327 43.2471 214.111 43.0534C213.894 42.8598 213.635 42.7203 213.354 42.6464C213.074 42.5725 212.78 42.5662 212.497 42.6281C212.213 42.69 211.948 42.8183 211.724 43.0025C211.305 42.7021 211.017 42.2512 210.92 41.7434C210.824 41.2355 210.926 40.7099 211.205 40.2755C211.921 39.1352 213.55 39.5896 215.038 40.4245C216.348 41.177 217.349 42.3728 217.862 43.798C217.804 44.4489 217.642 45.0862 217.383 45.6859C217.295 45.4309 217.156 45.1965 216.976 44.9967C216.795 44.7969 216.576 44.6358 216.332 44.5232C216.087 44.4106 215.823 44.3487 215.554 44.3414C215.285 44.334 215.018 44.3813 214.768 44.4803V44.4803ZM215.217 40.1031C214.141 39.4998 212.728 38.9473 211.709 39.3731C211.513 39.2455 211.353 39.0694 211.244 38.8617C211.136 38.654 211.082 38.4218 211.089 38.1874C211.096 37.953 211.163 37.7244 211.284 37.5235C211.404 37.3227 211.574 37.1564 211.778 37.0407C213.339 37.0541 214.836 37.6617 215.968 38.7408C217.1 39.8199 217.782 41.2901 217.877 42.8545C217.255 41.7127 216.335 40.7617 215.217 40.1031V40.1031ZM207.838 38.4255C207.723 38.8808 207.612 39.2786 207.523 39.6836C207.206 41.1421 207.21 43.3379 208.392 44.419C208.186 44.7821 207.884 45.0815 207.521 45.2845C207.157 45.4875 206.745 45.5863 206.329 45.5702C206.222 45.5702 206.115 45.5631 206.008 45.5489C205.712 44.8117 205.56 44.0239 205.561 43.2289C205.56 42.3085 205.764 41.3995 206.158 40.5685C206.552 39.7374 207.126 39.0053 207.838 38.4255V38.4255Z" fill="#231F20"/>
<path d="M155.346 0V60.9109" stroke="white" stroke-miterlimit="10"/>
<path d="M13.2209 27.1825C10.7271 26.007 8.67619 25.0616 8.67619 23.1472C8.67619 21.6762 9.84222 20.611 12.1467 20.611C12.9049 20.6187 13.6608 20.6968 14.4047 20.8444C14.7699 20.917 15.1407 20.9583 15.5129 20.9677C17.5266 20.9677 18.6639 19.7632 19.4224 17.4722L19.7352 16.539C17.226 15.5004 14.5398 14.9606 11.8257 14.9497C4.99441 14.9497 1.38952 19.3479 1.39498 23.9101C1.32832 25.8397 1.98524 27.7241 3.23589 29.1906C4.77987 30.7943 6.63151 32.0673 8.67898 32.9326C11.4952 34.3203 14.0314 35.3456 14.0314 37.4018C14.0314 39.2225 12.1523 40.2569 9.65014 40.2569C7.22027 40.141 4.86471 39.3791 2.82435 38.0492L0 43.3585C3.07286 45.1357 6.57108 46.0359 10.1165 45.9616C16.4869 45.9567 21.3181 42.2863 21.3181 36.6395C21.3182 31.0279 16.8437 28.9413 13.2209 27.1825Z" fill="#E31937"/>
<path d="M38.1501 29.8035L49.7124 15.5723H41.4696L32.2514 27.8533H32.1089V15.5723H25.3242V45.7177H25.7275C28.6603 45.7177 32.1555 44.3576 32.1555 39.4306V32.5168H32.3023L41.6973 45.3439H50.3378L38.1501 29.8035Z" fill="#E31937"/>
<path d="M88.9229 16.1572H97.8729C98.0588 16.1572 98.2371 16.2314 98.3686 16.3634C98.5001 16.4954 98.5739 16.6744 98.5739 16.8611V44.5909C98.5739 44.7772 98.5002 44.9559 98.369 45.0876C98.2378 45.2194 98.0599 45.2934 97.8743 45.2934H88.923C88.7378 45.2934 88.5601 45.2195 88.4292 45.088C88.2982 44.9565 88.2246 44.7781 88.2246 44.5922V16.8583C88.2246 16.6724 88.2982 16.494 88.4291 16.3626C88.5601 16.2311 88.7377 16.1572 88.9229 16.1572Z" fill="#231F20"/>
<path d="M124.268 38.5943C124.202 38.5099 124.119 38.4417 124.023 38.3948C123.927 38.3479 123.822 38.3235 123.715 38.3236H111.512V23.1256H123.715C123.822 23.1256 123.927 23.1013 124.023 23.0546C124.118 23.0078 124.202 22.9397 124.268 22.8556L128.589 17.2909C128.669 17.1874 128.719 17.0633 128.733 16.9326C128.747 16.8019 128.724 16.67 128.667 16.5518C128.609 16.4335 128.52 16.3338 128.409 16.2641C128.298 16.1943 128.169 16.1573 128.038 16.1572H105.916C105.809 16.1576 105.705 16.1821 105.609 16.2287C105.514 16.2753 105.43 16.3429 105.364 16.4264L101.311 21.6454C101.217 21.7694 101.165 21.9206 101.164 22.0765V39.372C101.165 39.5283 101.217 39.6801 101.311 39.8045L105.364 45.0227C105.43 45.1067 105.513 45.1747 105.609 45.2216C105.704 45.2685 105.809 45.293 105.916 45.2934H128.038C128.169 45.2927 128.297 45.2555 128.408 45.1858C128.519 45.1161 128.609 45.0167 128.667 44.8989C128.724 44.7807 128.747 44.6487 128.733 44.518C128.719 44.3873 128.669 44.2632 128.589 44.1597L124.268 38.5943Z" fill="#231F20"/>
<path d="M86.6803 38.7183C86.6227 38.6001 86.5333 38.5004 86.4223 38.4307C86.3112 38.3609 86.1828 38.3238 86.0518 38.3236H73.7939L85.9516 22.6703C86.0483 22.5472 86.1009 22.3951 86.1009 22.2384C86.1009 22.0817 86.0483 21.9295 85.9516 21.8065L81.7738 16.4265C81.7084 16.3426 81.625 16.2748 81.5296 16.2282C81.4343 16.1815 81.3297 16.1572 81.2236 16.1572H58.4751C58.3441 16.1568 58.2157 16.1936 58.1047 16.2635C57.9938 16.3333 57.9048 16.4333 57.8481 16.5518C57.7903 16.6698 57.7669 16.8017 57.7805 16.9325C57.7941 17.0632 57.8441 17.1875 57.9249 17.291L62.2455 22.8556C62.3108 22.9396 62.3942 23.0076 62.4896 23.0544C62.5849 23.1011 62.6896 23.1255 62.7957 23.1256H73.5964L57.2608 44.1597C57.1795 44.2629 57.129 44.3871 57.1152 44.518C57.1014 44.6488 57.1247 44.7808 57.1826 44.8989C57.2401 45.0168 57.3292 45.1163 57.44 45.186C57.5508 45.2557 57.6788 45.2929 57.8095 45.2934H81.7285C81.8349 45.2933 81.9398 45.2689 82.0354 45.222C82.1309 45.1751 82.2146 45.1069 82.28 45.0227L86.6034 39.4574C86.6838 39.3538 86.7337 39.2295 86.7473 39.0989C86.7608 38.9682 86.7376 38.8364 86.6803 38.7183Z" fill="#231F20"/>
<path d="M88.9243 15.5723H97.8729C97.9649 15.5723 98.0561 15.5905 98.1411 15.6258C98.2262 15.6612 98.3035 15.7131 98.3686 15.7784C98.4337 15.8438 98.4853 15.9214 98.5206 16.0068C98.5558 16.0922 98.5739 16.1837 98.5739 16.2762V44.0067C98.5739 44.1928 98.5003 44.3714 98.3692 44.503C98.2381 44.6346 98.0602 44.7086 97.8748 44.7086H88.923C88.7378 44.7086 88.5601 44.6347 88.4292 44.5032C88.2982 44.3717 88.2246 44.1933 88.2246 44.0074V16.2748C88.2246 16.0885 88.2983 15.9098 88.4295 15.7781C88.5607 15.6463 88.7387 15.5723 88.9242 15.5723L88.9243 15.5723Z" fill="url(#paint0_linear_160_48)"/>
<path d="M124.268 38.0102C124.202 37.9262 124.118 37.8583 124.022 37.8115C123.927 37.7648 123.822 37.7404 123.715 37.7401H111.512V22.542H123.715C123.822 22.5418 123.927 22.5172 124.023 22.4701C124.119 22.4229 124.203 22.3545 124.268 22.2699L128.589 16.706C128.669 16.6024 128.719 16.4781 128.733 16.3473C128.747 16.2166 128.724 16.0845 128.667 15.9662C128.609 15.8483 128.52 15.7489 128.409 15.6793C128.297 15.6097 128.169 15.5727 128.038 15.5723H105.916C105.809 15.5726 105.704 15.5972 105.609 15.6441C105.513 15.691 105.43 15.7589 105.364 15.8429L101.311 21.0612C101.216 21.185 101.165 21.3364 101.164 21.4924V38.7884C101.165 38.9444 101.217 39.0958 101.311 39.2197L105.364 44.4379C105.43 44.5218 105.513 44.5897 105.609 44.6366C105.704 44.6834 105.809 44.708 105.916 44.7086H128.038C128.169 44.7082 128.298 44.671 128.409 44.6013C128.52 44.5315 128.609 44.432 128.667 44.3139C128.724 44.196 128.747 44.0643 128.733 43.9338C128.719 43.8034 128.669 43.6795 128.589 43.5763L124.268 38.0102Z" fill="url(#paint1_linear_160_48)"/>
<path d="M86.6802 38.1335C86.6223 38.0157 86.5328 37.9165 86.4217 37.847C86.3107 37.7774 86.1826 37.7404 86.0517 37.7401H73.7939L85.9516 22.0854C86.0482 21.9625 86.1008 21.8105 86.1008 21.6539C86.1008 21.4973 86.0482 21.3453 85.9516 21.2224L81.7737 15.843C81.7087 15.7587 81.6253 15.6905 81.5299 15.6436C81.4346 15.5966 81.3298 15.5722 81.2236 15.5723H58.475C58.3442 15.5721 58.216 15.609 58.1051 15.6787C57.9941 15.7484 57.9051 15.8481 57.848 15.9663C57.7903 16.0844 57.7668 16.2164 57.7804 16.3472C57.794 16.4781 57.8441 16.6025 57.9248 16.706L62.2454 22.27C62.3105 22.3543 62.3939 22.4227 62.4892 22.4699C62.5846 22.517 62.6893 22.5417 62.7956 22.5421H73.5964L57.2607 43.5763C57.1795 43.6792 57.129 43.8031 57.1152 43.9337C57.1014 44.0643 57.1247 44.1962 57.1826 44.3139C57.2398 44.4321 57.3288 44.5317 57.4397 44.6015C57.5505 44.6712 57.6787 44.7084 57.8095 44.7086H81.7285C81.8348 44.7084 81.9397 44.6839 82.0352 44.637C82.1308 44.5901 82.2144 44.522 82.2799 44.4379L86.6033 38.874C86.6838 38.7701 86.7336 38.6456 86.7472 38.5147C86.7608 38.3839 86.7376 38.2518 86.6802 38.1335Z" fill="url(#paint2_linear_160_48)"/>
<path d="M97.4088 16.7432H89.3906V43.5369H97.4088V16.7432Z" fill="white"/>
<path d="M110.348 38.9096V21.372H123.49L127.083 16.7437H106.145L102.33 21.6549V38.6276L106.145 43.5371H127.083L123.49 38.9096H110.348Z" fill="white"/>
<path d="M85.0961 38.9096H71.4071L84.8093 21.6549L80.9955 16.7437H59.4295L63.0258 21.372H75.9805L58.7637 43.5371H81.5014L85.0961 38.9096Z" fill="white"/>
<path d="M58.4746 16.2749L59.4297 16.7438H80.9958L81.2234 16.2749H58.4746Z" fill="#6D6E71"/>
<path d="M81.2237 16.2749L80.9961 16.7438L84.8098 21.655H85.4012L81.2237 16.2749Z" fill="#D1D3D4"/>
<path d="M58.4746 16.2749L59.4297 16.7438L63.0261 21.3722L62.7951 21.8402L58.4746 16.2749Z" fill="#6D6E71"/>
<path d="M62.7949 21.8401L63.0259 21.3721H75.9806L75.0271 21.8401H62.7949Z" fill="#D1D3D4"/>
<path d="M84.8104 21.6548H85.4018L72.3616 38.4415L71.4082 38.9095L84.8104 21.6548Z" fill="#D1D3D4"/>
<path d="M75.0271 21.8401L75.9805 21.3721L58.7637 43.5372L57.8086 44.0069L75.0271 21.8401Z" fill="#6D6E71"/>
<path d="M72.3616 38.4414H86.0524L85.0972 38.9094H71.4082L72.3616 38.4414Z" fill="#6D6E71"/>
<path d="M58.7637 43.5371H81.5015L81.7282 44.0068H57.8086L58.7637 43.5371Z" fill="#D1D3D4"/>
<path d="M85.0966 38.9094L81.502 43.537L81.7287 44.0067L86.0517 38.4414L85.0966 38.9094Z" fill="#D1D3D4"/>
<path d="M89.3902 43.5371L88.9258 44.0068H97.8755L97.4086 43.5371H89.3902Z" fill="#D1D3D4"/>
<path d="M97.4102 16.7438L97.8772 16.2749V44.007L97.4102 43.5373V16.7438Z" fill="#D1D3D4"/>
<path d="M97.4086 16.7438H89.3902L88.9258 16.2749H97.8755L97.4086 16.7438Z" fill="#6D6E71"/>
<path d="M88.9258 16.2749L89.3902 16.7438V43.5373L88.9258 44.007V16.2749Z" fill="#6D6E71"/>
<path d="M105.918 16.2749L106.145 16.7438L102.331 21.655L101.865 21.4928L105.918 16.2749Z" fill="#6D6E71"/>
<path d="M101.865 21.4927L102.331 21.6549V38.6276L101.865 38.7882V21.4927Z" fill="#6D6E71"/>
<path d="M102.331 38.6274L106.145 43.537L105.918 44.0067L101.865 38.788L102.331 38.6274Z" fill="#6D6E71"/>
<path d="M106.144 43.5371H127.082L128.039 44.0068H105.916L106.144 43.5371Z" fill="#D1D3D4"/>
<path d="M110.814 38.4414H123.715L123.489 38.9094H110.348L110.814 38.4414Z" fill="#6D6E71"/>
<path d="M123.716 38.4414L128.04 44.0067L127.083 43.537L123.49 38.9094L123.716 38.4414Z" fill="#D1D3D4"/>
<path d="M110.348 21.3721L110.814 21.8401V38.4416L110.348 38.9096V21.3721Z" fill="#D1D3D4"/>
<path d="M110.348 21.3721H123.489L123.715 21.8401H110.814L110.348 21.3721Z" fill="#D1D3D4"/>
<path d="M123.49 21.3722L127.083 16.7438L128.04 16.2749L123.716 21.8402L123.49 21.3722Z" fill="#D1D3D4"/>
<path d="M127.082 16.7438H106.144L105.916 16.2749H128.039L127.082 16.7438Z" fill="#6D6E71"/>
<path d="M267.51 17.8203H271.255C273.412 17.8203 274.592 18.8447 274.592 20.7762C274.591 21.4221 274.395 22.0524 274.031 22.5849C273.667 23.1174 273.152 23.5274 272.552 23.7613C273.116 24.7667 273.786 25.7086 274.549 26.5708V27.7707H273.033C272.069 26.5928 271.229 25.3178 270.527 23.9662H269.492V27.7707H267.51V17.8203ZM271.692 22.1664C271.968 22.0825 272.207 21.9089 272.373 21.6732C272.54 21.4374 272.623 21.1527 272.611 20.8641C272.624 20.6935 272.6 20.522 272.54 20.3618C272.479 20.2017 272.384 20.0569 272.262 19.938C272.139 19.8191 271.992 19.7289 271.83 19.674C271.669 19.619 271.497 19.6007 271.328 19.6203H269.492V22.1664H271.692Z" fill="white"/>
<path d="M276.137 17.8203H282.418L282.126 19.6203H278.119V21.9029H281.748V23.7029H278.119V25.9709H282.272V27.7707H276.137V17.8203Z" fill="white"/>
<path d="M283.73 21.5371C283.73 18.8741 285.173 17.7182 287.607 17.7182C288.162 17.6871 288.716 17.7725 289.236 17.969C289.755 18.1655 290.228 18.4688 290.624 18.8593V20.3812H289.006C288.899 20.0898 288.696 19.8433 288.432 19.6814C288.167 19.5195 287.856 19.4516 287.549 19.4887C286.252 19.4887 285.712 20.1324 285.712 21.4934V24.2882C285.712 25.6784 286.296 26.2636 287.534 26.2636C287.792 26.2776 288.05 26.2395 288.293 26.1516C288.536 26.0636 288.759 25.9275 288.948 25.7514V23.6443H287.432V21.9029H290.77V27.7708H289.341L289.094 27.0976H289.05C288.769 27.3661 288.437 27.5745 288.074 27.7103C287.711 27.8462 287.324 27.9066 286.937 27.8879C284.823 27.8879 283.73 26.6879 283.73 24.1712L283.73 21.5371Z" fill="white"/>
<path d="M293.319 26.205V19.3862L292.328 19.2105V17.8203H296.292V19.2105L295.301 19.3862V26.205L296.292 26.3807V27.7707H292.328V26.3807L293.319 26.205Z" fill="white"/>
<path d="M297.604 21.6689C297.604 19.0791 298.944 17.6743 301.451 17.6743C303.943 17.6743 305.299 19.0791 305.299 21.6689V23.9225C305.299 26.4979 303.958 27.9173 301.451 27.9173C298.959 27.9173 297.604 26.5126 297.604 23.9225V21.6689ZM301.451 26.1468C302.763 26.1468 303.316 25.5321 303.316 24.0689V21.5227C303.316 20.0595 302.763 19.4449 301.451 19.4449C300.139 19.4449 299.585 20.0595 299.585 21.5227V24.0688C299.585 25.5321 300.139 26.1468 301.451 26.1468Z" fill="white"/>
<path d="M307.047 17.8203H308.869L311.696 22.4883C311.929 22.8688 312.483 23.9955 312.483 23.9955H312.512C312.512 23.9955 312.439 22.9273 312.439 21.9468V17.8203H314.363V27.7707H312.439V26.9659L309.947 22.8833C309.626 22.3126 308.971 21.1713 308.971 21.1713H308.927C308.927 21.1713 308.971 22.0785 308.971 23.059V27.7707H307.047V17.8203Z" fill="white"/>
<path d="M315.863 26.6586L318.297 17.8203H321.504L323.938 26.6586V27.7707H322.16L321.62 25.6783C321.039 25.7953 320.449 25.8541 319.857 25.8537C319.28 25.8523 318.704 25.7985 318.137 25.6928L317.598 27.7707H315.863L315.863 26.6586ZM318.574 24.0247C318.998 24.1013 319.427 24.1405 319.857 24.1419C320.302 24.1423 320.746 24.0981 321.183 24.01L320.6 21.8006C320.367 20.8787 320.076 19.5911 320.076 19.5911H319.682C319.682 19.5911 319.39 20.8787 319.143 21.8006L318.574 24.0247Z" fill="white"/>
<path d="M325.438 17.8203H327.419V25.9709H331.427L331.136 27.7707H325.438V17.8203Z" fill="white"/>
<path d="M335.479 17.8203H339.151C341.366 17.8203 342.503 18.9179 342.503 20.9664C342.506 21.6528 342.299 22.3235 341.911 22.8885C341.522 23.4535 340.971 23.8858 340.331 24.1272H337.461V27.7707H335.479L335.479 17.8203ZM339.676 22.3274C339.946 22.2035 340.171 21.9997 340.322 21.7434C340.473 21.4871 340.543 21.1904 340.521 20.8934C340.533 20.7154 340.505 20.537 340.44 20.3711C340.375 20.2052 340.274 20.0559 340.144 19.9341C340.014 19.8122 339.859 19.7209 339.69 19.6666C339.521 19.6123 339.342 19.5965 339.166 19.6203H337.461V22.3274H339.676Z" fill="white"/>
<path d="M343.305 26.6586L345.739 17.8203H348.945L351.379 26.6586V27.7707H349.601L349.061 25.6783C348.481 25.7953 347.89 25.8541 347.298 25.8537C346.721 25.8523 346.146 25.7985 345.578 25.6928L345.039 27.7707H343.305L343.305 26.6586ZM346.016 24.0247C346.439 24.1013 346.868 24.1405 347.298 24.1419C347.743 24.1423 348.188 24.0981 348.624 24.01L348.042 21.8006C347.808 20.8787 347.517 19.5911 347.517 19.5911H347.123C347.123 19.5911 346.832 20.8787 346.584 21.8006L346.016 24.0247Z" fill="white"/>
<path d="M352.879 17.8203H356.624C358.781 17.8203 359.962 18.8447 359.962 20.7762C359.96 21.4221 359.764 22.0524 359.4 22.5849C359.036 23.1174 358.521 23.5274 357.921 23.7613C358.485 24.7667 359.155 25.7086 359.918 26.5708V27.7707H358.402C357.438 26.5928 356.598 25.3178 355.896 23.9662H354.861V27.7707H352.879V17.8203ZM357.061 22.1664C357.337 22.0825 357.576 21.9089 357.743 21.6732C357.909 21.4374 357.992 21.1527 357.98 20.8641C357.993 20.6935 357.969 20.522 357.909 20.3618C357.848 20.2017 357.754 20.0569 357.631 19.938C357.508 19.8191 357.361 19.7289 357.199 19.674C357.038 19.619 356.866 19.6007 356.697 19.6203H354.861V22.1664H357.061Z" fill="white"/>
<path d="M365.062 19.6203V27.7707H363.08V19.6203H360.719V17.8203H367.511L367.219 19.6203H365.062Z" fill="white"/>
<path d="M368.676 17.8203H370.497L373.325 22.4883C373.558 22.8688 374.112 23.9955 374.112 23.9955H374.141C374.141 23.9955 374.068 22.9273 374.068 21.9468V17.8203H375.992V27.7707H374.068V26.9659L371.576 22.8833C371.255 22.3126 370.6 21.1713 370.6 21.1713H370.556C370.556 21.1713 370.6 22.0785 370.6 23.059V27.7707H368.676V17.8203Z" fill="white"/>
<path d="M378.033 17.8203H384.315L384.023 19.6203H380.015V21.9029H383.644V23.7029H380.015V25.9709H384.169V27.7707H378.033V17.8203Z" fill="white"/>
<path d="M385.916 17.8203H389.661C391.819 17.8203 392.999 18.8447 392.999 20.7762C392.997 21.4221 392.801 22.0524 392.437 22.5849C392.074 23.1174 391.558 23.5274 390.959 23.7613C391.522 24.7667 392.192 25.7086 392.955 26.5708V27.7707H391.439C390.475 26.5928 389.635 25.3178 388.933 23.9662H387.898V27.7707H385.916V17.8203ZM390.098 22.1664C390.374 22.0825 390.613 21.9089 390.78 21.6732C390.946 21.4374 391.029 21.1527 391.017 20.8641C391.03 20.6935 391.006 20.522 390.946 20.3618C390.886 20.2017 390.791 20.0569 390.668 19.938C390.545 19.8191 390.398 19.7289 390.237 19.674C390.075 19.619 389.904 19.6007 389.734 19.6203H387.898V22.1664H390.098Z" fill="white"/>
<path d="M267.219 36.3096C267.219 33.7197 268.56 32.3149 271.066 32.3149C273.558 32.3149 274.914 33.7197 274.914 36.3096V38.5631C274.914 41.1385 273.573 42.5579 271.066 42.5579C268.574 42.5579 267.219 41.1532 267.219 38.5631V36.3096ZM271.066 40.7874C272.378 40.7874 272.932 40.1727 272.932 38.7095V36.1634C272.932 34.7002 272.378 34.0855 271.066 34.0855C269.755 34.0855 269.201 34.7002 269.201 36.1634V38.7095C269.201 40.1727 269.755 40.7874 271.066 40.7874Z" fill="white"/>
<path d="M276.662 32.4609H282.798L282.506 34.2609H278.644V36.5435H282.127V38.3435H278.644V42.4113H276.662L276.662 32.4609Z" fill="white"/>
<path d="M286.965 32.4609H293.1L292.809 34.2609H288.947V36.5435H292.43V38.3435H288.947V42.4113H286.965V32.4609Z" fill="white"/>
<path d="M294.062 36.1779C294.062 33.5441 295.36 32.359 297.735 32.359C298.28 32.3278 298.826 32.4105 299.338 32.6019C299.85 32.7933 300.316 33.0892 300.708 33.4709V35.022H299.091C299.091 35.022 298.974 34.1295 297.75 34.1295C296.453 34.1295 296.044 34.7732 296.044 36.1342V38.7388C296.044 40.0995 296.453 40.7435 297.75 40.7435C298.974 40.7435 299.091 39.8509 299.091 39.8509H300.708V41.4019C300.316 41.7837 299.85 42.0796 299.338 42.271C298.826 42.4625 298.28 42.5452 297.735 42.514C295.36 42.514 294.063 41.3287 294.063 38.6948L294.062 36.1779Z" fill="white"/>
<path d="M305.168 32.4609H308.753C311.129 32.4609 311.959 33.5438 311.959 35.1827C311.973 35.6174 311.875 36.0482 311.673 36.433C311.471 36.8178 311.173 37.1434 310.808 37.3778V37.407C311.191 37.6224 311.512 37.9338 311.739 38.3107C311.967 38.6877 312.093 39.1174 312.105 39.5579C312.105 41.3432 311.129 42.4113 308.884 42.4113H305.168L305.168 32.4609ZM307.092 34.173V36.529H309.248C309.481 36.4238 309.678 36.253 309.815 36.0372C309.952 35.8215 310.024 35.5703 310.021 35.3144C310.033 35.1563 310.01 34.9976 309.953 34.8497C309.896 34.7017 309.807 34.5683 309.693 34.4591C309.579 34.3498 309.442 34.2675 309.292 34.218C309.142 34.1685 308.982 34.1532 308.826 34.173H307.092ZM307.092 38.2118V40.6993H308.943C309.108 40.7128 309.275 40.6898 309.43 40.6318C309.586 40.5739 309.727 40.4824 309.844 40.3638C309.96 40.2453 310.05 40.1025 310.105 39.9456C310.161 39.7887 310.182 39.6214 310.167 39.4554C310.158 39.1849 310.071 38.9229 309.915 38.7018C309.76 38.4808 309.543 38.3104 309.292 38.2118H307.092Z" fill="white"/>
<path d="M313.168 41.2992L315.602 32.4609H318.808L321.242 41.2992V42.4113H319.464L318.925 40.3189C318.344 40.4359 317.753 40.4947 317.161 40.4944C316.584 40.493 316.009 40.4391 315.442 40.3334L314.903 42.4113H313.168L313.168 41.2992ZM315.879 38.6653C316.302 38.742 316.731 38.7812 317.161 38.7825C317.607 38.7829 318.051 38.7387 318.488 38.6506L317.905 36.4413C317.671 35.5193 317.38 34.2317 317.38 34.2317H316.987C316.987 34.2317 316.695 35.5193 316.447 36.4413L315.879 38.6653Z" fill="white"/>
<path d="M322.742 32.4609H326.488C328.645 32.4609 329.825 33.4853 329.825 35.4168C329.823 36.0627 329.628 36.693 329.264 37.2255C328.9 37.7581 328.384 38.168 327.785 38.402C328.349 39.4073 329.018 40.3492 329.782 41.2115V42.4113H328.266C327.301 41.2334 326.461 39.9585 325.759 38.6069H324.724V42.4113H322.742V32.4609ZM326.925 36.8071C327.2 36.7231 327.44 36.5496 327.606 36.3138C327.772 36.078 327.856 35.7934 327.843 35.5048C327.857 35.3341 327.832 35.1626 327.772 35.0025C327.712 34.8423 327.617 34.6976 327.494 34.5786C327.372 34.4597 327.224 34.3695 327.063 34.3146C326.901 34.2597 326.73 34.2413 326.56 34.2609H324.724V36.8071H326.925Z" fill="white"/>
<path d="M331.078 36.1779C331.078 33.5441 332.375 32.359 334.751 32.359C335.296 32.3278 335.842 32.4105 336.353 32.6019C336.865 32.7933 337.332 33.0892 337.724 33.4709V35.022H336.106C336.106 35.022 335.99 34.1295 334.765 34.1295C333.468 34.1295 333.06 34.7732 333.06 36.1342V38.7388C333.06 40.0995 333.468 40.7435 334.765 40.7435C335.99 40.7435 336.106 39.8509 336.106 39.8509H337.724V41.4019C337.332 41.7837 336.865 42.0796 336.354 42.271C335.842 42.4625 335.296 42.5452 334.751 42.514C332.375 42.514 331.078 41.3287 331.078 38.6948V36.1779Z" fill="white"/>
<path d="M339.268 32.4609H345.549L345.257 34.2609H341.25V36.5435H344.879V38.3435H341.25V40.6115H345.403V42.4113H339.268L339.268 32.4609Z" fill="white"/>
<path d="M347.152 32.4609H349.134V40.6115H353.142L352.851 42.4113H347.152V32.4609Z" fill="white"/>
<path d="M353.986 36.3096C353.986 33.7197 355.327 32.3149 357.834 32.3149C360.326 32.3149 361.682 33.7197 361.682 36.3096V38.5631C361.682 41.1385 360.341 42.5579 357.834 42.5579C355.342 42.5579 353.986 41.1532 353.986 38.5631V36.3096ZM357.834 40.7874C359.146 40.7874 359.699 40.1727 359.699 38.7095V36.1634C359.699 34.7002 359.146 34.0855 357.834 34.0855C356.522 34.0855 355.968 34.7002 355.968 36.1634V38.7095C355.968 40.1727 356.522 40.7874 357.834 40.7874H357.834Z" fill="white"/>
<path d="M363.43 32.4609H365.251L368.079 37.1289C368.312 37.5094 368.866 38.6361 368.866 38.6361H368.895C368.895 38.6361 368.822 37.5679 368.822 36.5875V32.4609H370.746V42.4113H368.822V41.6065L366.33 37.524C366.009 36.9533 365.353 35.8119 365.353 35.8119H365.31C365.31 35.8119 365.353 36.7191 365.353 37.6996V42.4113H363.43V32.4609Z" fill="white"/>
<path d="M372.246 41.2992L374.68 32.4609H377.886L380.32 41.2992V42.4113H378.542L378.003 40.3189C377.422 40.4359 376.832 40.4947 376.239 40.4944C375.662 40.493 375.087 40.4391 374.52 40.3334L373.981 42.4113H372.246V41.2992ZM374.957 38.6653C375.38 38.742 375.809 38.7812 376.239 38.7825C376.685 38.7829 377.129 38.7387 377.566 38.6506L376.983 36.4413C376.75 35.5193 376.458 34.2317 376.458 34.2317H376.065C376.065 34.2317 375.773 35.5193 375.526 36.4413L374.957 38.6653Z" fill="white"/>
<defs>
<linearGradient id="paint0_linear_160_48" x1="93.3993" y1="15.8503" x2="93.3993" y2="44.7778" gradientUnits="userSpaceOnUse">
<stop stop-color="#A7A9AC"/>
<stop offset="0.11797" stop-color="#989A9D"/>
<stop offset="0.26405" stop-color="#808285"/>
<stop offset="0.52247" stop-color="#BCBEC0"/>
<stop offset="0.61926" stop-color="#ADAFB1"/>
<stop offset="0.80497" stop-color="#87888A"/>
<stop offset="1" stop-color="#58595B"/>
</linearGradient>
<linearGradient id="paint1_linear_160_48" x1="-12427.5" y1="16085.6" x2="-12427.5" y2="17077.9" gradientUnits="userSpaceOnUse">
<stop stop-color="#A7A9AC"/>
<stop offset="0.11797" stop-color="#989A9D"/>
<stop offset="0.26405" stop-color="#808285"/>
<stop offset="0.52247" stop-color="#BCBEC0"/>
<stop offset="0.61926" stop-color="#ADAFB1"/>
<stop offset="0.80497" stop-color="#87888A"/>
<stop offset="1" stop-color="#58595B"/>
</linearGradient>
<linearGradient id="paint2_linear_160_48" x1="-14917.8" y1="16085.6" x2="-14917.8" y2="17077.9" gradientUnits="userSpaceOnUse">
<stop stop-color="#A7A9AC"/>
<stop offset="0.11797" stop-color="#989A9D"/>
<stop offset="0.26405" stop-color="#808285"/>
<stop offset="0.52247" stop-color="#BCBEC0"/>
<stop offset="0.61926" stop-color="#ADAFB1"/>
<stop offset="0.80497" stop-color="#87888A"/>
<stop offset="1" stop-color="#58595B"/>
</linearGradient>
</defs>
</svg>
