<svg width="164" height="29" viewBox="0 0 164 29" fill="none" xmlns="http://www.w3.org/2000/svg">
<path fill-rule="evenodd" clip-rule="evenodd" d="M113.941 5.23926H123.389C123.509 5.23926 123.625 5.28713 123.71 5.37233C123.795 5.45754 123.843 5.57311 123.843 5.69361V23.4076C123.843 23.5281 123.795 23.6437 123.71 23.7289C123.625 23.8141 123.509 23.8619 123.389 23.8619H113.941C113.821 23.8619 113.705 23.8141 113.62 23.7289C113.535 23.6437 113.487 23.5281 113.487 23.4076V5.69361C113.487 5.57311 113.535 5.45754 113.62 5.37233C113.705 5.28713 113.821 5.23926 113.941 5.23926ZM109.237 28.7476H128.064C128.133 28.7476 128.201 28.7319 128.263 28.7017C128.325 28.6715 128.379 28.6277 128.421 28.5734L132.246 23.6908C132.309 23.6108 132.343 23.5122 132.343 23.4106V5.6972C132.343 5.59577 132.309 5.49726 132.247 5.41736L128.421 0.5246C128.379 0.470245 128.325 0.426277 128.263 0.396042C128.201 0.365806 128.132 0.350098 128.064 0.350098H109.237C109.168 0.350098 109.099 0.365918 109.037 0.396357C108.975 0.426796 108.921 0.471046 108.878 0.525725L105.078 5.41769C105.016 5.49741 104.982 5.59547 104.982 5.69642V23.4114C104.982 23.5125 105.016 23.6107 105.078 23.6905L108.878 28.5723C108.921 28.6269 108.975 28.671 109.037 28.7014C109.099 28.7318 109.167 28.7476 109.237 28.7476Z" fill="#D8A746"/>
<path fill-rule="evenodd" clip-rule="evenodd" d="M76.1582 0.520378V5.06855C76.1582 5.11358 76.1761 5.15677 76.2079 5.18861C76.2398 5.22046 76.283 5.23834 76.328 5.23834H84.7711C84.7934 5.23834 84.8155 5.24274 84.8361 5.25127C84.8567 5.25981 84.8754 5.27232 84.8912 5.28809C84.907 5.30385 84.9195 5.32256 84.928 5.34316C84.9365 5.36376 84.9409 5.38585 84.9409 5.40815V28.5782C84.9409 28.6233 84.9588 28.6665 84.9907 28.6983C85.0225 28.7302 85.0657 28.748 85.1107 28.748H93.2719C93.2942 28.748 93.3163 28.7436 93.3369 28.7351C93.3575 28.7266 93.3762 28.7141 93.392 28.6983C93.4077 28.6826 93.4203 28.6638 93.4288 28.6432C93.4373 28.6226 93.4417 28.6005 93.4417 28.5782V5.40815C93.4417 5.38585 93.4461 5.36376 93.4546 5.34316C93.4632 5.32256 93.4757 5.30385 93.4914 5.28809C93.5072 5.27232 93.5259 5.25981 93.5465 5.25127C93.5671 5.24274 93.5892 5.23834 93.6115 5.23834H102.055C102.077 5.23834 102.099 5.23396 102.12 5.22543C102.14 5.21689 102.159 5.20438 102.175 5.18861C102.19 5.17285 102.203 5.15414 102.211 5.13354C102.22 5.11294 102.224 5.09085 102.224 5.06855V0.520378C102.224 0.49808 102.22 0.476005 102.211 0.455404C102.203 0.434804 102.19 0.416082 102.175 0.400315C102.159 0.384548 102.14 0.372043 102.12 0.36351C102.099 0.354977 102.077 0.350586 102.055 0.350586H76.328C76.283 0.350586 76.2398 0.368473 76.2079 0.400315C76.1761 0.432158 76.1582 0.475346 76.1582 0.520378Z" fill="#D8A746"/>
<path fill-rule="evenodd" clip-rule="evenodd" d="M145.418 5.23787H155.105C155.194 5.23787 155.279 5.27321 155.342 5.33612C155.405 5.39903 155.44 5.48435 155.44 5.57331V15.2627C155.44 15.3517 155.405 15.437 155.342 15.4999C155.279 15.5628 155.194 15.5982 155.105 15.5982H145.418C145.329 15.5982 145.244 15.5628 145.181 15.4999C145.118 15.437 145.083 15.3517 145.083 15.2627V5.57331C145.083 5.48435 145.118 5.39903 145.181 5.33612C145.244 5.27321 145.329 5.23787 145.418 5.23787ZM136.914 28.7476H144.747C144.791 28.7476 144.835 28.7389 144.876 28.722C144.916 28.7052 144.953 28.6805 144.984 28.6493C145.015 28.6182 145.04 28.5812 145.057 28.5405C145.074 28.4998 145.083 28.4562 145.083 28.4121V20.8237C145.083 20.7347 145.118 20.6494 145.181 20.5865C145.244 20.5236 145.329 20.4882 145.418 20.4882H159.744C159.795 20.4882 159.846 20.4765 159.892 20.4541C159.938 20.4316 159.978 20.3989 160.009 20.3586L163.872 15.3876C163.917 15.3287 163.942 15.2563 163.942 15.1817V5.65569C163.942 5.58114 163.917 5.50872 163.872 5.44986L160.009 0.479697C159.978 0.439346 159.938 0.406697 159.892 0.384236C159.846 0.361775 159.795 0.350098 159.744 0.350098H140.777C140.725 0.350097 140.675 0.361771 140.629 0.38423C140.583 0.406689 140.543 0.439337 140.512 0.479684L136.649 5.44984C136.603 5.50871 136.578 5.58115 136.578 5.6557V28.4121C136.578 28.4562 136.587 28.4998 136.604 28.5405C136.621 28.5812 136.645 28.6182 136.676 28.6493C136.708 28.6805 136.745 28.7052 136.785 28.722C136.826 28.7389 136.87 28.7476 136.914 28.7476Z" fill="#D8A746"/>
<path d="M14.9621 23.0533L28.365 5.85957L24.0711 0.350586H0.685465L5.12698 6.05142H17.6997L0 28.748H24.5921L29.0346 23.0533H14.9621Z" fill="white"/>
<path d="M41.1876 0.350098H31.9883V28.7476H41.1876V0.350098Z" fill="white"/>
<path d="M54.4912 23.0528V6.05093H67.7536L72.1991 0.350098H49.4586L45.291 5.69735V23.4032L49.4586 28.7475H72.1991L67.7536 23.0528H54.4912Z" fill="white"/>
</svg>
